<?xml version="1.0" encoding="utf-8"?>
<!-- Generator: Adobe Illustrator 23.0.1, SVG Export Plug-In . SVG Version: 6.00 Build 0)  -->
<svg version="1.1" id="Layer_1" xmlns="http://www.w3.org/2000/svg" xmlns:xlink="http://www.w3.org/1999/xlink" x="0px" y="0px"
	 viewBox="0 0 67.08 61.24" style="enable-background:new 0 0 67.08 61.24;" xml:space="preserve">
<style type="text/css">
	.st0{fill:#262626;}
	.st1{display:none;}
	.st2{display:inline;}
	.st3{display:inline;fill:#9B372A;}
	.st4{display:inline;fill:#00D857;}
	.st5{display:inline;fill:#487EFF;}
	.st6{display:inline;fill:#F4D01E;}
	.st7{display:inline;fill:#FFFFFF;}
	.st8{fill:#FFFFFF;}
	.st9{fill:none;stroke:#D11527;stroke-width:2.5;stroke-miterlimit:10;}
	.st10{fill:none;stroke:#D11527;stroke-width:0.75;stroke-miterlimit:10;}
	.st11{fill:none;stroke:#00D857;stroke-width:0.75;stroke-miterlimit:10;}
	.st12{fill:none;stroke:#2E0EE5;stroke-width:0.75;stroke-miterlimit:10;}
	.st13{fill:none;stroke:#F4D01E;stroke-width:0.75;stroke-miterlimit:10;}
	.st14{fill:none;}
	.st15{display:inline;fill:#3300C9;}
	.st16{fill:none;stroke:#4D39C4;stroke-width:3;stroke-miterlimit:10;}
	.st17{fill:#9B372A;}
	.st18{fill:#00D857;}
	.st19{fill:none;stroke:#00D857;stroke-width:2.5;stroke-miterlimit:10;}
	.st20{fill:#487EFF;}
	.st21{fill:none;stroke:#2E0EE5;stroke-width:2.5;stroke-miterlimit:10;}
	.st22{fill:#F4D01E;}
	.st23{fill:none;stroke:#F4D01E;stroke-width:2.5;stroke-miterlimit:10;}
</style>
<path class="st22" d="M35.46,61.24c-24.74-0.98-18.28,2.65-29.79-16.51c-7.69-12.8-7.37-13.05-0.14-26.13
	c2.54-4.59,5.52-8.93,8-13.55c1.88-3.51,4.44-5.15,8.44-5.05C30.2,0.2,38.43,0,46.65,0.36c1.76,0.08,4.13,1.42,5.04,2.9
	c5.16,8.46,10.07,17.09,14.79,25.81c0.77,1.42,0.83,3.95,0.07,5.36c-4.22,7.87-8.67,15.61-13.33,23.22
	c-0.84,1.38-2.99,2.53-4.65,2.73C43.49,60.99,38.37,61.07,35.46,61.24z"/>
<g>
	<path class="st8" d="M32.94,25.8v16.59l13.21-2.51V31.8c0-0.34,0.29-0.6,0.63-0.56l1.62,0.25c0.29,0.03,0.5,0.27,0.5,0.56v9.39
		c0,0.27-0.19,0.5-0.45,0.55L34,45.1c-0.7,0.15-1.42,0.15-2.12,0l-14.3-3.01c-0.26-0.05-0.44-0.28-0.45-0.54l-0.25-9.54
		c-0.01-0.3,0.22-0.55,0.52-0.58l12.15-1.07c0.21-0.02,0.39-0.15,0.47-0.35l1.83-4.45C32.09,25.01,32.94,25.18,32.94,25.8z
		 M16.75,20.36l-3.81,8.15c-0.19,0.4,0.13,0.85,0.57,0.8l14.32-1.45c0.2-0.02,0.38-0.15,0.46-0.33l4.61-10.38l-15.73,2.89
		C16.98,20.08,16.82,20.2,16.75,20.36z M32.89,17.16l4.88,10.7c0.09,0.19,0.27,0.31,0.47,0.33l14.29,1.15
		c0.43,0.03,0.74-0.41,0.56-0.8l-3.73-8.17c-0.08-0.17-0.23-0.29-0.41-0.32L32.89,17.16z"/>
</g>
</svg>
